<?xml version="1.0" encoding="utf-8"?>
<!-- Generator: Adobe Illustrator 21.0.2, SVG Export Plug-In . SVG Version: 6.00 Build 0)  -->
<svg version="1.1" id="Layer_1" xmlns="http://www.w3.org/2000/svg" xmlns:xlink="http://www.w3.org/1999/xlink" x="0px" y="0px"
	 viewBox="0 0 792 612" style="enable-background:new 0 0 792 612;" xml:space="preserve">
<style type="text/css">
	.st0{fill:#FFFFFF;}
</style>
<g>
	<g>
		<path class="st0" d="M300.5,191c81.7,0,163.3,0,245,0c0,68.3,0,136.7,0,205c-81.7,0-163.3,0-245,0
			C300.5,327.7,300.5,259.3,300.5,191z M423,313c32.8,0,65.7,0.1,98.5,0c11.4,0,20-8.5,20-19.3c0.1-10.9-8.4-19.6-19.8-19.6
			c-65.8-0.1-131.7-0.1-197.5,0c-6.3,0-11.8,2.4-15.6,7.6c-4.7,6.2-5.6,13.1-2.2,20.2c3.7,7.7,10.2,11.2,18.6,11.2
			C357.7,313,390.3,313,423,313z M422.7,392c33,0,66,0.1,99,0c11.3,0,19.9-8.7,19.8-19.6c-0.1-10.7-8.4-19.3-19.5-19.3
			c-66-0.1-132-0.1-198,0c-6.1,0-11.4,2.4-15.2,7.3c-4.9,6.4-5.8,13.4-2.3,20.6c3.7,7.5,10,10.9,18.2,11
			C357.4,392.1,390.1,392,422.7,392z M423.1,195c-32.7,0-65.3,0-98,0c-6.8,0-12.5,2.3-16.5,7.7c-4.6,6.2-5.5,13.1-2.1,20.2
			c3.6,7.3,9.7,10.9,17.7,11c21.8,0.1,43.7,0.1,65.5,0.1c43.5,0,87,0,130.5,0c6.7,0,12.6-1.8,16.8-7.1c5-6.2,6.1-13.2,2.6-20.6
			c-3.6-7.5-9.8-11.2-18-11.2C488.8,194.9,455.9,195,423.1,195z"/>
		<path d="M423,313c-32.7,0-65.3,0-98,0c-8.4,0-14.8-3.5-18.6-11.2c-3.4-7.1-2.5-14,2.2-20.2c3.8-5.2,9.3-7.6,15.6-7.6
			c65.8,0,131.7-0.1,197.5,0c11.3,0,19.8,8.7,19.8,19.6c-0.1,10.9-8.6,19.3-20,19.3C488.7,313.1,455.8,313,423,313z"/>
		<path d="M422.7,392c-32.7,0-65.3,0-98,0c-8.2,0-14.5-3.5-18.2-11c-3.6-7.3-2.6-14.3,2.3-20.6c3.8-4.9,9.1-7.3,15.2-7.3
			c66,0,132-0.1,198,0c11.1,0,19.4,8.6,19.5,19.3c0.1,10.8-8.5,19.5-19.8,19.6C488.7,392.1,455.7,392,422.7,392z"/>
		<path d="M423.1,195c32.8,0,65.7-0.1,98.5,0c8.2,0,14.4,3.7,18,11.2c3.5,7.4,2.4,14.3-2.6,20.6c-4.2,5.3-10.1,7.1-16.8,7.1
			c-43.5-0.1-87,0-130.5,0c-21.8,0-43.7,0.1-65.5-0.1c-8-0.1-14.1-3.7-17.7-11c-3.5-7.1-2.6-14,2.1-20.2c4.1-5.4,9.8-7.7,16.5-7.7
			C357.8,195,390.4,195,423.1,195z"/>
	</g>
</g>
</svg>
